<svg xmlns="http://www.w3.org/2000/svg" xmlns:xlink="http://www.w3.org/1999/xlink" viewBox="0 0 1806 514.25">
	<defs>
		<style>.cls-1{fill:none;}.cls-2{clip-path:url(#clip-path);}.cls-3{fill:url(#linear-gradient);}.cls-4{fill:#231f20;}.cls-5{fill:url(#linear-gradient-2);}.cls-6{fill:url(#linear-gradient-12);}</style>
		<clipPath id="clip-path" transform="translate(0 -0.37)">
			<rect class="cls-1" width="1806" height="515" />
		</clipPath>
		<linearGradient id="linear-gradient" x1="3.06" y1="257.5" x2="1795.49" y2="257.5" gradientUnits="userSpaceOnUse">
			<stop offset="0" stop-color="#00a9c5" />
			<stop offset="1" stop-color="#7773b4" />
		</linearGradient>
		<linearGradient id="linear-gradient-2" x1="3.06" y1="163.02" x2="1795.49" y2="163.02" xlink:href="#linear-gradient" />
		<linearGradient id="linear-gradient-12" x1="3.06" y1="254.17" x2="1795.49" y2="254.17" xlink:href="#linear-gradient" />
	</defs>
	<title>314e-Logo</title>
	<g id="Layer_2" data-name="Layer 2">
		<g id="Layer_1-2" data-name="Layer 1">
			<g class="cls-2">
				<path id="SVGID" class="cls-3" d="M466.61,378.71A241.87,241.87,0,0,1,257.13,499.5c-133.66,0-242-108.35-242-242s108.34-242,242-242c129.74,0,235.63,102.11,241.71,230.35a75.29,75.29,0,0,1,15.36,16c0-1.43,0-2.87,0-4.31C514.25,115.49,399.13.37,257.13.37S0,115.49,0,257.5,115.12,514.63,257.13,514.63c101.05,0,188.47-58.31,230.49-143.1A74,74,0,0,1,466.61,378.71Z" transform="translate(0 -0.37)" />
				<path class="cls-4" d="M148.58,251.47q17.25,4.93,26.48,17.92t9.22,32.18q0,23-16.58,38.41t-41.78,15.45a58.23,58.23,0,0,1-29.55-7.5q-13.05-7.5-21.75-22.05l8.55-6.75q7.2,13,18.3,19.88a47.42,47.42,0,0,0,25.36,6.82q20.1,0,33.37-12.75t13.28-31.51q0-20.7-13-32.47t-36.08-11.78h-16V247h14.7q23.1,0,36.31-11.11t13.2-30.15q0-18.45-12.3-30.53T128.92,163.1a50,50,0,0,0-22,5.33,76.54,76.54,0,0,0-21.15,15.82l-6.45-6.45a81.71,81.71,0,0,1,24.08-18.15,60.55,60.55,0,0,1,26.48-6.15q23.4,0,38.62,14.85T183.68,206q0,17-9.67,29.55A41.93,41.93,0,0,1,148.58,251.47Z" transform="translate(0 -0.37)" />
				<path class="cls-4" d="M258,152V351.68l-10.51,2.7V172.26q-6.3,4.63-14.93,9.89T208.14,196l-4.65-9.3q16.5-8.4,29.63-16.81A279.24,279.24,0,0,0,258,152Z" transform="translate(0 -0.37)" />
				<path class="cls-4" d="M512.2,298.59a59.42,59.42,0,0,0-116.32-9.37v0H374.53V150.5L276.86,298.58h87.92v55.8l9.75-2.7v-53.1h19.56a58,58,0,0,0-.36,6.49A59.42,59.42,0,0,0,499,342.93l-8.79-5a49.48,49.48,0,0,1-86.1-39.37Zm-147.42-9.32h-71l71-107.12Zm88.36-33.71a49.56,49.56,0,0,1,46.92,33.66H406.23A49.54,49.54,0,0,1,453.14,255.56Z" transform="translate(0 -0.37)" />
				<rect class="cls-4" x="712.9" width="9.56" height="514.25" />
				<path class="cls-4" d="M896,273.3H910.9c28.27,0,46.72,3.53,46.72,74,0,57.91-9.42,74-45.73,74H896Zm13.74,135.43h3.92c26.5,0,29.84-18.65,29.84-61.44,0-50.84-5.31-61.43-31.41-61.43h-2.35Z" transform="translate(0 -0.37)" />
				<path class="cls-4" d="M1032.44,285.86H999.66v52.21h31.79v12.56H999.66v58.1h32.78v12.56H985.92v-148h46.52Z" transform="translate(0 -0.37)" />
				<path class="cls-4" d="M1073.42,408.73h32.19v12.56h-45.93v-148h13.74Z" transform="translate(0 -0.37)" />
				<path class="cls-4" d="M1142.56,421.29h-13.75v-148h13.75Z" transform="translate(0 -0.37)" />
				<path class="cls-4" d="M1208.64,421.29h-12.16l-29.84-148h14.13l19.44,107.75c.78,3.74,1.56,13.34,2.36,20h.78c.59-6.68,1.38-16.49,2-20l19.23-107.75h13.93Z" transform="translate(0 -0.37)" />
				<path class="cls-4" d="M1309.41,285.86h-32.78v52.21h31.79v12.56h-31.79v58.1h32.78v12.56h-46.52v-148h46.52Z" transform="translate(0 -0.37)" />
				<path class="cls-4" d="M1336.64,421.29v-148h14.72c20.62,0,40.44,1.56,40.44,37.68,0,18.84-4.13,37.29-27.88,38.07l32.78,72.24h-14.52l-31.41-72.43h-.38v72.43Zm13.75-83.62h4.9c19.23,0,22.38-6.66,22.38-26.1,0-23.36-7.07-25.71-24.55-25.71h-2.73Z" transform="translate(0 -0.37)" />
				<path class="cls-4" d="M1467.93,285.86h-32.77v52.21h31.78v12.56h-31.78v58.1h32.77v12.56h-46.52v-148h46.52Z" transform="translate(0 -0.37)" />
				<path class="cls-4" d="M1495.17,273.3h14.91c28.27,0,46.71,3.53,46.71,74,0,57.91-9.41,74-45.72,74h-15.9Zm13.74,135.43h3.92c26.5,0,29.84-18.65,29.84-61.44,0-50.84-5.31-61.43-31.41-61.43h-2.35Z" transform="translate(0 -0.37)" />
				<path id="SVGID-2" data-name="SVGID" class="cls-5" d="M957.42,237H943.68V160.67H909.73V237H896V89h13.74v59.09h33.95V89h13.74Z" transform="translate(0 -0.37)" />
				<path id="SVGID-3" data-name="SVGID" class="cls-5" d="M1027.54,101.59H994.76V153.8h31.79v12.56H994.76v58.1h32.78V237H981V89h46.52Z" transform="translate(0 -0.37)" />
				<path id="SVGID-4" data-name="SVGID" class="cls-5" d="M1107.26,237h-14.72l-5.5-30.43h-31.4l-5.3,30.43h-14.72l29.05-148h12.95Zm-22.37-42.4-9.82-56.72c-1.76-10-2.54-20.22-3.73-30.22h-.78c-1.37,10-2.36,20.21-3.92,30.22L1058,194.62Z" transform="translate(0 -0.37)" />
				<path id="SVGID-5" data-name="SVGID" class="cls-5" d="M1132.82,224.46H1165V237h-45.92V89h13.74Z" transform="translate(0 -0.37)" />
				<path id="SVGID-6" data-name="SVGID" class="cls-5" d="M1217.47,101.59h-22.19V237h-13.73V101.59h-22.18V89h58.1Z" transform="translate(0 -0.37)" />
				<path id="SVGID-7" data-name="SVGID" class="cls-5" d="M1292.09,237h-13.75V160.67h-33.95V237h-13.74V89h13.74v59.09h33.95V89h13.75Z" transform="translate(0 -0.37)" />
				<path id="SVGID-8" data-name="SVGID" class="cls-5" d="M1370.05,232.89a35.19,35.19,0,0,1-18.84,6.09c-34.74,0-39.85-45.34-39.85-70.65,0-24,.79-81.27,41.22-81.27,5.49,0,13,1.37,17.47,4.71v15.12c-5.49-3.74-10.4-6.49-17.27-6.49-24,0-27.28,34.75-27.28,62.22,0,17.28,0,63,26.29,63,6.68,0,13-3,18.26-6.68Z" transform="translate(0 -0.37)" />
				<path id="SVGID-9" data-name="SVGID" class="cls-5" d="M1447.61,237h-14.72l-5.49-30.43H1396l-5.3,30.43H1376l29-148h13Zm-22.37-42.4-9.81-56.72c-1.77-10-2.55-20.22-3.74-30.22h-.78c-1.37,10-2.36,20.21-3.92,30.22l-8.64,56.72Z" transform="translate(0 -0.37)" />
				<path id="SVGID-10" data-name="SVGID" class="cls-5" d="M1459.43,237V89h14.72c20.61,0,40.44,1.57,40.44,37.69,0,18.84-4.13,37.29-27.88,38.07L1519.49,237H1505l-31.4-72.43h-.39V237Zm13.74-83.62h4.91c19.23,0,22.37-6.66,22.37-26.1,0-23.36-7.06-25.71-24.53-25.71h-2.75Z" transform="translate(0 -0.37)" />
				<path id="SVGID-11" data-name="SVGID" class="cls-5" d="M1580.77,101.59H1548V153.8h31.79v12.56H1548v58.1h32.77V237h-46.51V89h46.51Z" transform="translate(0 -0.37)" />
				<path id="SVGID-12" data-name="SVGID" class="cls-6" d="M1644.61,421.29h-31V87.06h31Z" transform="translate(0 -0.37)" />
				<path id="SVGID-13" data-name="SVGID" class="cls-6" d="M1806,115.43h-50.1V421.29h-31V115.43H1674.8V87.06H1806Z" transform="translate(0 -0.37)" />
			</g>
		</g>
	</g>
</svg>
